<svg width="41" height="47" viewBox="0 0 41 47" fill="none" xmlns="http://www.w3.org/2000/svg">
<path d="M17.3945 27.8828H25.5391L28.293 31.2812C29.9043 29.1426 30.8125 25.9199 30.8125 21.7891C30.8125 13.3516 27.0625 8.78125 20.8516 8.78125C14.6406 8.78125 10.8906 13.3516 10.8906 21.7891C10.8906 30.2266 14.6406 34.7969 20.8516 34.7969C21.4375 34.7969 22.0234 34.7676 22.6094 34.6797L17.3945 27.8828ZM41.0078 21.7891C41.0078 29.2598 38.5176 34.9434 34.4453 38.6641L40.6562 46.3398H31.5742L28.293 42.3555C26.0078 43.1758 23.4883 43.5859 20.8516 43.5859C9.42578 43.5859 0.695312 35.7344 0.695312 21.7891C0.695312 7.78516 9.42578 -0.0078125 20.8516 -0.0078125C32.2188 -0.0078125 41.0078 7.78516 41.0078 21.7891Z" fill="#7BA1FF"/>
</svg>
