<svg width="90" height="170" viewBox="0 0 90 170" fill="none" xmlns="http://www.w3.org/2000/svg">
<path d="M0 0H90V140.695C90 151.433 76.9774 156.765 69.4464 149.111L53.5536 132.959C48.8521 128.181 41.1479 128.181 36.4464 132.959L20.5536 149.111C13.0226 156.765 0 151.433 0 140.695V0Z" fill="#7BA1FF"/>
<path d="M27.5836 32.509C27.5836 34.933 28.5781 37.4316 30.8281 38.6126L29.728 40.0546C28.2425 39.2776 27.2418 37.8854 26.6762 36.2196C26.1168 38.0159 25.1099 39.5511 23.6244 40.4088L22.4932 38.9482C24.7183 37.6678 25.7252 35.02 25.7376 32.509V32.0615H22.9593V30.4641H25.7376V28.239H27.5774V30.4641H30.3184V32.0615H27.5836V32.509ZM31.17 42.7956V27.953H33.016V33.895H34.6382V27.6796H36.5153V43.5539H34.6382V35.5048H33.016V42.7956H31.17ZM45.0932 28.7735V30.3522H40.7362V31.8936H44.9316V33.3854H40.7362V35.0573C42.6692 35.0387 44.0179 34.9579 45.5718 34.6782L45.7645 36.2569C43.9061 36.5988 42.3709 36.6671 39.9095 36.6609H38.8529V28.7735H45.0932ZM40.9537 39.6381V38.0656H51.837V43.5539H49.8916V39.6381H40.9537ZM46.4979 37.2452V27.9841H48.3191V31.6575H49.9786V27.692H51.837V37.357H49.9786V33.2362H48.3191V37.2452H46.4979ZM67.0407 27.692V37.3384H65.1014V27.692H67.0407ZM53.8887 35.3246C55.1443 35.3246 56.58 35.3246 58.0842 35.2749V33.6837H55.2188V28.5124H62.9509V30.0974H57.1829V32.1174H63.0441V33.6837H60.0607V35.1941C61.4032 35.1195 62.7458 35.0076 64.0199 34.8336L64.138 36.201C60.7195 36.7977 56.9219 36.8349 54.0938 36.8349L53.8887 35.3246ZM56.3625 43.3674V38.0159H67.0407V43.3674H56.3625ZM58.2831 41.7887H65.1512V39.5698H58.2831V41.7887Z" fill="white"/>
<path d="M33.9959 104H23.2638L37.6423 61.5691H50.8812L65.2597 104H54.5276L51.6685 94.9461H36.855L33.9959 104ZM39.279 87.3011H49.2445L44.4171 72.0732H44.0856L39.279 87.3011Z" fill="white"/>
</svg>
