<svg width="30" height="29" viewBox="0 0 30 29" fill="none" xmlns="http://www.w3.org/2000/svg">
<mask id="path-1-inside-1_1230_4845" fill="white">
<path d="M29.1886 14.3719C29.1886 22.3093 22.7541 28.7438 14.8167 28.7438C6.87934 28.7438 0.444824 22.3093 0.444824 14.3719C0.444824 6.43451 6.87934 0 14.8167 0C22.7541 0 29.1886 6.43451 29.1886 14.3719ZM6.19358 14.3719C6.19358 19.1343 10.0543 22.995 14.8167 22.995C19.5791 22.995 23.4398 19.1343 23.4398 14.3719C23.4398 9.60946 19.5791 5.74875 14.8167 5.74875C10.0543 5.74875 6.19358 9.60946 6.19358 14.3719Z"/>
</mask>
<path d="M29.1886 14.3719C29.1886 22.3093 22.7541 28.7438 14.8167 28.7438C6.87934 28.7438 0.444824 22.3093 0.444824 14.3719C0.444824 6.43451 6.87934 0 14.8167 0C22.7541 0 29.1886 6.43451 29.1886 14.3719ZM6.19358 14.3719C6.19358 19.1343 10.0543 22.995 14.8167 22.995C19.5791 22.995 23.4398 19.1343 23.4398 14.3719C23.4398 9.60946 19.5791 5.74875 14.8167 5.74875C10.0543 5.74875 6.19358 9.60946 6.19358 14.3719Z" fill="#E3EBFF" stroke="#E3EBFF" stroke-width="11.4978" stroke-linejoin="round" mask="url(#path-1-inside-1_1230_4845)"/>
<path d="M23.4399 5.74875C23.4399 2.57381 26.0137 0 29.1887 0V28.7438C26.0137 28.7438 23.4399 26.17 23.4399 22.995V5.74875Z" fill="#E3EBFF"/>
</svg>
