<svg width="29" height="29" viewBox="0 0 29 29" fill="none" xmlns="http://www.w3.org/2000/svg">
<mask id="path-1-inside-1_787_414" fill="white">
<path d="M0.000364304 14.3719C0.000364304 22.3093 6.43488 28.7438 14.3723 28.7438C22.3096 28.7438 28.7441 22.3093 28.7441 14.3719C28.7441 6.43451 22.3096 0 14.3723 0C6.43488 0 0.000364304 6.43451 0.000364304 14.3719ZM22.9954 14.3719C22.9954 19.1343 19.1347 22.995 14.3723 22.995C9.60983 22.995 5.74912 19.1343 5.74912 14.3719C5.74912 9.60946 9.60983 5.74875 14.3723 5.74875C19.1347 5.74875 22.9954 9.60946 22.9954 14.3719Z"/>
</mask>
<path d="M0.000364304 14.3719C0.000364304 22.3093 6.43488 28.7438 14.3723 28.7438C22.3096 28.7438 28.7441 22.3093 28.7441 14.3719C28.7441 6.43451 22.3096 0 14.3723 0C6.43488 0 0.000364304 6.43451 0.000364304 14.3719ZM22.9954 14.3719C22.9954 19.1343 19.1347 22.995 14.3723 22.995C9.60983 22.995 5.74912 19.1343 5.74912 14.3719C5.74912 9.60946 9.60983 5.74875 14.3723 5.74875C19.1347 5.74875 22.9954 9.60946 22.9954 14.3719Z" fill="#E3EBFF" stroke="#E3EBFF" stroke-width="11.4978" stroke-linejoin="round" mask="url(#path-1-inside-1_787_414)"/>
<path d="M28.7441 28.7422C28.7441 25.5672 26.1703 22.9934 22.9954 22.9934L14.3723 22.9934L14.3723 28.7422L28.7441 28.7422Z" fill="#E3EBFF"/>
</svg>
