<svg width="25" height="25" viewBox="0 0 25 25" fill="none" xmlns="http://www.w3.org/2000/svg">
<path d="M20 10C20 15.5228 15.5228 20 10 20C4.47715 20 0 15.5228 0 10C0 4.47715 4.47715 0 10 0C15.5228 0 20 4.47715 20 10ZM2.08 10C2.08 14.3741 5.6259 17.92 10 17.92C14.3741 17.92 17.92 14.3741 17.92 10C17.92 5.6259 14.3741 2.08 10 2.08C5.6259 2.08 2.08 5.6259 2.08 10Z" fill="#8E8E8E"/>
<path d="M15.6738 17.0898L17.0849 15.6725L23.7169 22.2753C24.1083 22.6649 24.1097 23.2981 23.7201 23.6895C23.3304 24.0809 22.6972 24.0823 22.3059 23.6926L15.6738 17.0898Z" fill="#8E8E8E"/>
</svg>
