<svg width="23" height="23" viewBox="0 0 23 23" fill="none" xmlns="http://www.w3.org/2000/svg">
<path d="M11.5 11.5C9.91875 11.5 8.5651 10.937 7.43906 9.81094C6.31302 8.6849 5.75 7.33125 5.75 5.75C5.75 4.16875 6.31302 2.8151 7.43906 1.68906C8.5651 0.563021 9.91875 0 11.5 0C13.0813 0 14.4349 0.563021 15.5609 1.68906C16.687 2.8151 17.25 4.16875 17.25 5.75C17.25 7.33125 16.687 8.6849 15.5609 9.81094C14.4349 10.937 13.0813 11.5 11.5 11.5ZM2.875 23C2.08437 23 1.40779 22.7187 0.84525 22.1562C0.28175 21.5927 0 20.9156 0 20.125V18.975C0 18.1604 0.209875 17.4115 0.629625 16.7282C1.04842 16.0459 1.60521 15.525 2.3 15.1656C3.78542 14.4229 5.29479 13.8656 6.82812 13.4938C8.36146 13.1229 9.91875 12.9375 11.5 12.9375C13.0813 12.9375 14.6385 13.1229 16.1719 13.4938C17.7052 13.8656 19.2146 14.4229 20.7 15.1656C21.3948 15.525 21.9516 16.0459 22.3704 16.7282C22.7901 17.4115 23 18.1604 23 18.975V20.125C23 20.9156 22.7187 21.5927 22.1562 22.1562C21.5927 22.7187 20.9156 23 20.125 23H2.875Z" fill="white"/>
</svg>
