<svg width="126" height="27" viewBox="0 0 126 27" fill="none" xmlns="http://www.w3.org/2000/svg">
<mask id="path-1-inside-1_533_371" fill="white">
<path d="M51.2867 11.3127C51.2867 17.5606 56.3515 22.6255 62.5994 22.6255C68.8472 22.6255 73.9121 17.5606 73.9121 11.3127C73.9121 5.06488 68.8472 0 62.5994 0C56.3515 0 51.2867 5.06488 51.2867 11.3127ZM69.387 11.3127C69.387 15.0614 66.3481 18.1004 62.5994 18.1004C58.8507 18.1004 55.8117 15.0614 55.8117 11.3127C55.8117 7.56402 58.8507 4.52509 62.5994 4.52509C66.3481 4.52509 69.387 7.56402 69.387 11.3127Z"/>
</mask>
<path d="M51.2867 11.3127C51.2867 17.5606 56.3515 22.6255 62.5994 22.6255C68.8472 22.6255 73.9121 17.5606 73.9121 11.3127C73.9121 5.06488 68.8472 0 62.5994 0C56.3515 0 51.2867 5.06488 51.2867 11.3127ZM69.387 11.3127C69.387 15.0614 66.3481 18.1004 62.5994 18.1004C58.8507 18.1004 55.8117 15.0614 55.8117 11.3127C55.8117 7.56402 58.8507 4.52509 62.5994 4.52509C66.3481 4.52509 69.387 7.56402 69.387 11.3127Z" stroke="black" stroke-width="9.05041" stroke-linejoin="round" mask="url(#path-1-inside-1_533_371)"/>
<path d="M51.2852 11.7661H55.8102V27.0006C53.3111 27.0006 51.2852 24.9746 51.2852 22.4755V11.7661Z" fill="black"/>
<mask id="path-3-inside-2_533_371" fill="white">
<path d="M48.268 11.3127C48.268 17.5606 43.2032 22.6255 36.9553 22.6255C30.7075 22.6255 25.6426 17.5606 25.6426 11.3127C25.6426 5.06488 30.7075 0 36.9553 0C43.2032 0 48.268 5.06488 48.268 11.3127ZM30.1677 11.3127C30.1677 15.0614 33.2066 18.1004 36.9553 18.1004C40.704 18.1004 43.7429 15.0614 43.7429 11.3127C43.7429 7.56402 40.704 4.52509 36.9553 4.52509C33.2066 4.52509 30.1677 7.56402 30.1677 11.3127Z"/>
</mask>
<path d="M48.268 11.3127C48.268 17.5606 43.2032 22.6255 36.9553 22.6255C30.7075 22.6255 25.6426 17.5606 25.6426 11.3127C25.6426 5.06488 30.7075 0 36.9553 0C43.2032 0 48.268 5.06488 48.268 11.3127ZM30.1677 11.3127C30.1677 15.0614 33.2066 18.1004 36.9553 18.1004C40.704 18.1004 43.7429 15.0614 43.7429 11.3127C43.7429 7.56402 40.704 4.52509 36.9553 4.52509C33.2066 4.52509 30.1677 7.56402 30.1677 11.3127Z" stroke="black" stroke-width="9.05041" stroke-linejoin="round" mask="url(#path-3-inside-2_533_371)"/>
<path d="M43.7441 4.5251C43.7441 2.02596 45.7701 0 48.2692 0V22.6255C45.7701 22.6255 43.7441 20.5995 43.7441 18.1004V4.5251Z" fill="black"/>
<mask id="path-5-inside-3_533_371" fill="white">
<path d="M76.9273 11.3127C76.9273 14.313 78.1192 17.1905 80.2407 19.312C82.3622 21.4336 85.2397 22.6255 88.24 22.6255C91.2403 22.6255 94.1178 21.4336 96.2393 19.312C98.3609 17.1905 99.5527 14.3131 99.5527 11.3127L95.0276 11.3127C95.0276 13.1129 94.3125 14.8394 93.0396 16.1123C91.7667 17.3852 90.0402 18.1004 88.24 18.1004C86.4398 18.1004 84.7134 17.3852 83.4404 16.1123C82.1675 14.8394 81.4524 13.1129 81.4524 11.3127H76.9273Z"/>
</mask>
<path d="M76.9273 11.3127C76.9273 14.313 78.1192 17.1905 80.2407 19.312C82.3622 21.4336 85.2397 22.6255 88.24 22.6255C91.2403 22.6255 94.1178 21.4336 96.2393 19.312C98.3609 17.1905 99.5527 14.3131 99.5527 11.3127L95.0276 11.3127C95.0276 13.1129 94.3125 14.8394 93.0396 16.1123C91.7667 17.3852 90.0402 18.1004 88.24 18.1004C86.4398 18.1004 84.7134 17.3852 83.4404 16.1123C82.1675 14.8394 81.4524 13.1129 81.4524 11.3127H76.9273Z" stroke="black" stroke-width="9.05041" stroke-linejoin="round" mask="url(#path-5-inside-3_533_371)"/>
<path d="M76.9277 0C79.4269 0 81.4528 2.02595 81.4528 4.52509V11.3127H76.9277V0Z" fill="black"/>
<path d="M95.0293 4.52509C95.0293 2.02596 97.0552 0 99.5544 0V11.3127H95.0293V4.52509Z" fill="black"/>
<rect width="4.52509" height="9.20102" transform="matrix(0 -1 -1 0 118.561 13.5774)" fill="black"/>
<rect width="4.52509" height="4.67593" transform="matrix(0 -1 -1 0 113.885 4.5257)" fill="black"/>
<path d="M120.672 4.5257C123.171 4.5257 125.197 2.49974 125.197 0.000605106L113.885 0.000605106V4.5257L120.672 4.5257Z" fill="black"/>
<path d="M118.561 22.6269V18.1018H107.097C104.598 18.1018 102.572 20.1278 102.572 22.6269H118.561Z" fill="black"/>
<mask id="path-12-inside-4_533_371" fill="white">
<path d="M109.358 13.5753C108.467 13.5753 107.584 13.3997 106.76 13.0586C105.937 12.7175 105.189 12.2175 104.558 11.5872C103.928 10.9569 103.428 10.2087 103.087 9.38515C102.746 8.56163 102.57 7.679 102.57 6.78763C102.57 5.89627 102.746 5.01363 103.087 4.19011C103.428 3.3666 103.928 2.61834 104.558 1.98805C105.189 1.35776 105.937 0.857785 106.76 0.516675C107.584 0.175565 108.467 -1.28573e-06 109.358 0L109.358 4.52396C109.061 4.52396 108.766 4.58251 108.492 4.69627C108.217 4.81003 107.967 4.97677 107.757 5.18697C107.547 5.39718 107.38 5.64672 107.267 5.92136C107.153 6.196 107.094 6.49036 107.094 6.78763C107.094 7.08491 107.153 7.37926 107.267 7.65391C107.38 7.92855 107.547 8.17809 107.757 8.3883C107.967 8.5985 108.217 8.76524 108.492 8.879C108.766 8.99276 109.061 9.05131 109.358 9.05131L109.358 13.5753Z"/>
</mask>
<path d="M109.358 13.5753C108.467 13.5753 107.584 13.3997 106.76 13.0586C105.937 12.7175 105.189 12.2175 104.558 11.5872C103.928 10.9569 103.428 10.2087 103.087 9.38515C102.746 8.56163 102.57 7.679 102.57 6.78763C102.57 5.89627 102.746 5.01363 103.087 4.19011C103.428 3.3666 103.928 2.61834 104.558 1.98805C105.189 1.35776 105.937 0.857785 106.76 0.516675C107.584 0.175565 108.467 -1.28573e-06 109.358 0L109.358 4.52396C109.061 4.52396 108.766 4.58251 108.492 4.69627C108.217 4.81003 107.967 4.97677 107.757 5.18697C107.547 5.39718 107.38 5.64672 107.267 5.92136C107.153 6.196 107.094 6.49036 107.094 6.78763C107.094 7.08491 107.153 7.37926 107.267 7.65391C107.38 7.92855 107.547 8.17809 107.757 8.3883C107.967 8.5985 108.217 8.76524 108.492 8.879C108.766 8.99276 109.061 9.05131 109.358 9.05131L109.358 13.5753Z" stroke="black" stroke-width="9.05041" mask="url(#path-12-inside-4_533_371)"/>
<mask id="path-13-inside-5_533_371" fill="white">
<path d="M118.41 22.6248C119.301 22.6248 120.184 22.4492 121.007 22.1081C121.831 21.767 122.579 21.267 123.209 20.6367C123.84 20.0064 124.339 19.2582 124.681 18.4346C125.022 17.6111 125.197 16.7285 125.197 15.8371C125.197 14.9458 125.022 14.0631 124.681 13.2396C124.339 12.4161 123.839 11.6678 123.209 11.0375C122.579 10.4073 121.831 9.90728 121.007 9.56617C120.184 9.22506 119.301 9.0495 118.41 9.0495L118.41 13.5735C118.707 13.5735 119.001 13.632 119.276 13.7458C119.551 13.8595 119.8 14.0263 120.01 14.2365C120.22 14.4467 120.387 14.6962 120.501 14.9709C120.615 15.2455 120.673 15.5399 120.673 15.8371C120.673 16.1344 120.615 16.4288 120.501 16.7034C120.387 16.978 120.22 17.2276 120.01 17.4378C119.8 17.648 119.551 17.8147 119.276 17.9285C119.001 18.0423 118.707 18.1008 118.41 18.1008L118.41 22.6248Z"/>
</mask>
<path d="M118.41 22.6248C119.301 22.6248 120.184 22.4492 121.007 22.1081C121.831 21.767 122.579 21.267 123.209 20.6367C123.84 20.0064 124.339 19.2582 124.681 18.4346C125.022 17.6111 125.197 16.7285 125.197 15.8371C125.197 14.9458 125.022 14.0631 124.681 13.2396C124.339 12.4161 123.839 11.6678 123.209 11.0375C122.579 10.4073 121.831 9.90728 121.007 9.56617C120.184 9.22506 119.301 9.0495 118.41 9.0495L118.41 13.5735C118.707 13.5735 119.001 13.632 119.276 13.7458C119.551 13.8595 119.8 14.0263 120.01 14.2365C120.22 14.4467 120.387 14.6962 120.501 14.9709C120.615 15.2455 120.673 15.5399 120.673 15.8371C120.673 16.1344 120.615 16.4288 120.501 16.7034C120.387 16.978 120.22 17.2276 120.01 17.4378C119.8 17.648 119.551 17.8147 119.276 17.9285C119.001 18.0423 118.707 18.1008 118.41 18.1008L118.41 22.6248Z" stroke="black" stroke-width="9.05041" mask="url(#path-13-inside-5_533_371)"/>
<mask id="path-14-inside-6_533_371" fill="white">
<path d="M-0.000453949 11.3127C-0.000453949 17.5606 5.06443 22.6255 11.3123 22.6255C17.5601 22.6255 22.625 17.5606 22.625 11.3127C22.625 5.06488 17.5601 0 11.3123 0C5.06443 0 -0.000453949 5.06488 -0.000453949 11.3127ZM18.0999 11.3127C18.0999 15.0614 15.061 18.1004 11.3123 18.1004C7.56357 18.1004 4.52464 15.0614 4.52464 11.3127C4.52464 7.56402 7.56357 4.52509 11.3123 4.52509C15.061 4.52509 18.0999 7.56402 18.0999 11.3127Z"/>
</mask>
<path d="M-0.000453949 11.3127C-0.000453949 17.5606 5.06443 22.6255 11.3123 22.6255C17.5601 22.6255 22.625 17.5606 22.625 11.3127C22.625 5.06488 17.5601 0 11.3123 0C5.06443 0 -0.000453949 5.06488 -0.000453949 11.3127ZM18.0999 11.3127C18.0999 15.0614 15.061 18.1004 11.3123 18.1004C7.56357 18.1004 4.52464 15.0614 4.52464 11.3127C4.52464 7.56402 7.56357 4.52509 11.3123 4.52509C15.061 4.52509 18.0999 7.56402 18.0999 11.3127Z" stroke="black" stroke-width="9.05041" stroke-linejoin="round" mask="url(#path-14-inside-6_533_371)"/>
<path d="M22.625 22.6259C22.625 20.1268 20.599 18.1008 18.0999 18.1008H11.3123V22.6259L22.625 22.6259Z" fill="black"/>
</svg>
