<svg width="30" height="30" viewBox="0 0 30 30" fill="none" xmlns="http://www.w3.org/2000/svg">
<path d="M15 15C12.9375 15 11.1719 14.2656 9.70312 12.7969C8.23438 11.3281 7.5 9.5625 7.5 7.5C7.5 5.4375 8.23438 3.67188 9.70312 2.20313C11.1719 0.734375 12.9375 0 15 0C17.0625 0 18.8281 0.734375 20.2969 2.20313C21.7656 3.67188 22.5 5.4375 22.5 7.5C22.5 9.5625 21.7656 11.3281 20.2969 12.7969C18.8281 14.2656 17.0625 15 15 15ZM3.75 30C2.71875 30 1.83625 29.6331 1.1025 28.8994C0.3675 28.1644 0 27.2812 0 26.25V24.75C0 23.6875 0.27375 22.7106 0.82125 21.8194C1.3675 20.9294 2.09375 20.25 3 19.7812C4.9375 18.8125 6.90625 18.0856 8.90625 17.6006C10.9062 17.1169 12.9375 16.875 15 16.875C17.0625 16.875 19.0938 17.1169 21.0938 17.6006C23.0938 18.0856 25.0625 18.8125 27 19.7812C27.9062 20.25 28.6325 20.9294 29.1788 21.8194C29.7262 22.7106 30 23.6875 30 24.75V26.25C30 27.2812 29.6331 28.1644 28.8994 28.8994C28.1644 29.6331 27.2812 30 26.25 30H3.75Z" fill="black"/>
</svg>
